<?xml version="1.0" encoding="utf-8"?>
<!-- Generator: Adobe Illustrator 15.0.0, SVG Export Plug-In . SVG Version: 6.00 Build 0)  -->
<!DOCTYPE svg PUBLIC "-//W3C//DTD SVG 1.1//EN" "http://www.w3.org/Graphics/SVG/1.1/DTD/svg11.dtd">
<svg version="1.1" id="mx_n_1483191223264" xmlns="http://www.w3.org/2000/svg" xmlns:xlink="http://www.w3.org/1999/xlink" x="0px"
	 y="0px" width="183px" height="48px" viewBox="0 0 183 48" enable-background="new 0 0 183 48" xml:space="preserve">
<path d="M59.612,22.167c-1.01-1.734-1.571-2.67-2.133-3.538c-1.011-1.602-1.684-2.735-3.93-7.543
	c-1.347-2.938-3.817-5.007-7.411-6.143c0.112-0.2,0.112-0.333,0.112-0.533c0-0.201-0.112-0.401-0.112-0.603
	c1.123-0.533,2.021-1.067,2.021-1.936c0-0.268-0.112-1.536-2.919-1.803c-0.561-0.066-1.235-0.066-1.909-0.066
	c-0.674,0-1.459,0-2.133,0.066C40.3,0.136,39.177,0.336,38.503,0.87c-0.337,0.268-1.011,0.734-1.572,1.202
	c-1.01,0.866-1.347,1.401-1.347,1.868l-0.112,0.066h-0.898h-1.908h-0.113h-0.112l0,0H31.88h-0.339c-0.112,0-0.337-0.066-0.562-0.066
	V3.874C32.103,3.34,33,2.739,33,1.938c0-0.268-0.112-1.535-2.919-1.803c-0.336-0.066-1.011-0.134-1.796-0.134
	c-0.674,0-1.459,0-2.133,0.066c-0.898,0.065-2.021,0.2-2.695,0.733c-0.337,0.268-1.011,0.734-1.572,1.201
	c-1.011,0.936-1.348,1.402-1.348,1.869c0,0.268,0.112,0.668,0.449,0.936c-1.123,0.399-2.245,0.869-3.143,1.401
	c-1.909,1.202-3.369,2.804-4.379,4.74c-2.246,4.807-3.031,5.94-3.93,7.544c-0.561,0.867-1.123,1.803-2.133,3.538
	c-1.572,2.735-2.021,6.876,1.011,10.28c1.459,1.603,3.592,2.869,6.4,3.806c-0.899,0.733-1.572,1.536-2.021,2.403
	c-0.336,0.668-0.336,1.469,0.225,2.068c0.561,0.668,1.459,1.135,2.694,1.401c0.449,0.067,1.011,0.135,1.459,0.135
	c0.562,0,1.235-0.065,1.797-0.201c0,0,0,0,0,0.066c1.01,1.87,1.01,2.204,0.898,2.538c0,0.134,0,0.334,0,0.533
	c0,1.803,2.807,2.938,5.502,2.938c1.123,0,2.358-0.134,3.256-0.468c0.786-0.268,1.459-0.602,1.909-1.068
	c0.674,0.067,1.46,0.135,2.583,0.135c0.112,0,0.224,0,0.448,0c0.113,0,0.337,0,0.449,0c1.123,0,1.909-0.066,2.583-0.135
	c0.449,0.4,1.011,0.803,1.909,1.068C39.401,47.8,40.636,48,41.759,48c1.235,0,2.471-0.269,3.481-0.668
	c1.235-0.535,2.021-1.401,2.021-2.271c0-0.199,0-0.399,0-0.533c0-0.334-0.112-0.668,0.898-2.538c0,0,0,0,0-0.066
	c0.562,0.136,1.123,0.201,1.796,0.201c0.45,0,1.011-0.065,1.46-0.135c1.123-0.2,2.133-0.733,2.694-1.401
	c0.562-0.667,0.674-1.4,0.225-2.068c-0.449-0.867-1.235-1.67-2.021-2.403c2.695-0.867,4.828-2.136,6.401-3.806
	C61.633,29.044,61.183,24.905,59.612,22.167z M48.721,12.087c0.674,1.938-0.898,3.538-3.481,3.538c-2.582,0-5.165-1.603-5.727-3.538
	c-0.674-1.938,0.898-3.538,3.481-3.538C45.464,8.549,48.047,10.084,48.721,12.087z M47.261,35.653
	c1.684,0.667,3.368,1.802,4.379,3.537c0.337,0.603-0.225,1.201-1.123,1.402c-0.225,0.066-0.336,0.066-0.562,0.066
	c-0.786,0-1.684-0.268-1.909-0.734c-0.673-1.201-0.898-1.937-3.144-2.402v0.467c1.123,0.601,1.572,1.869,0.562,3.673
	c-1.46,2.67-0.898,2.735-0.898,3.537s-1.459,1.336-2.695,1.336c-1.348,0-2.919-0.333-2.919-1.136c0-0.469-0.337-0.601-0.786-0.601
	c-0.337,0-0.786,0.066-1.235,0.132c-0.562,0.068-1.347,0.201-2.694,0.201c-0.112,0-0.225,0-0.449,0c-0.112,0-0.337,0-0.45,0
	c-1.347,0-2.133-0.133-2.694-0.201c-0.449-0.064-0.898-0.132-1.235-0.132c-0.449,0-0.786,0.132-0.786,0.601
	c0,0.803-1.685,1.136-3.031,1.136c-1.348,0-2.695-0.534-2.695-1.336s0.449-0.867-1.01-3.537c-1.011-1.804-0.225-3.072,0.449-3.673
	l-0.225,0.134l0.225-0.601c-1.123,0.467-2.358,1.201-3.032,2.402c-0.225,0.467-1.011,0.734-1.796,0.734
	c-0.225,0-0.337,0-0.562-0.066c-1.01-0.201-1.459-0.801-1.123-1.402c1.01-1.735,2.695-2.803,4.379-3.537
	c-11.116-1.67-12.239-8.547-9.768-12.951c2.694-4.874,2.583-3.673,6.175-11.148c1.796-3.806,5.165-5.142,8.309-5.675
	c0.674-0.534,1.571-1.336,1.571-1.469c0-0.269-2.694-0.134-2.694-0.401c0-0.267,1.684-1.603,2.245-2.068
	c0.224-0.135,1.459-0.268,2.694-0.268c1.011,0,2.021,0.066,2.021,0.268c0,0.334-2.919,1.469-2.919,1.803
	c0,0.333,1.123,0.467,1.123,0.734c0,0.134-0.674,0.668-1.348,1.067h0.112c0.562-0.067,1.123-0.135,1.685-0.135
	c1.123,0,2.021,0,2.695,0c0.112,0,0.224,0,0.336,0c0.225,0,0.449,0,0.562,0l0,0c0.113,0,0.113,0,0.113,0h0.112
	c0.225,0,0.786,0,1.909,0c0.337,0,0.562,0,0.898,0c0.674,0,1.572,0,2.695,0c0.561,0,1.123,0.067,1.684,0.067
	c0.562-0.4,1.235-0.936,1.235-1.067c0-0.269-2.694-0.134-2.694-0.401c0-0.267,1.684-1.603,2.246-2.068
	c0.225-0.135,1.46-0.268,2.695-0.268c1.01,0,2.021,0.066,2.021,0.268c0,0.334-2.919,1.469-2.919,1.803
	c0,0.333,1.123,0.467,1.123,0.734c0,0.199-1.123,0.867-1.796,1.269l0,0c-0.562,0-1.011,0-1.572,0.134
	c-5.39,0.733-8.421,4.807-6.849,9.079c1.684,4.272,7.298,7.144,12.8,6.409c3.706-0.535,6.4-2.604,7.074-5.273
	c1.46,2.805,1.909,3.137,3.93,6.741C59.5,27.106,58.377,33.917,47.261,35.653z"/>
<path d="M27.836,12.688c0-0.067,0.112-0.135,0.112-0.135c0-0.065,0-0.065,0-0.135c0-0.132,0.111-0.199,0.111-0.199l0,0
	c0,0,0-0.066,0-0.267c0-0.067,0-0.2,0-0.335c0-0.133,0-0.268,0-0.4c0-0.065,0-0.133,0-0.267c0-0.065,0-0.2-0.111-0.269
	c0-0.065-0.112-0.199-0.112-0.267s0-0.134-0.113-0.134c0-0.066,0-0.135-0.112-0.135c-0.225-0.399-0.562-0.866-1.235-1.268
	c-0.337-0.199-0.786-0.4-1.235-0.469c-0.113-0.064-0.224-0.064-0.336-0.064c-0.113,0-0.225-0.066-0.337-0.066
	c-0.112,0-0.336,0-0.449-0.068c-0.112,0-0.224-0.064-0.336-0.064V8.013l0,0c-0.112,0,0,0,0,0l0,0v0.066l-0.225,0.066
	c-0.112,0-0.225,0-0.449,0.065c-0.112,0-0.225,0.068-0.337,0.068c-0.112,0-0.225,0.065-0.336,0.065
	c-0.449,0.135-1.011,0.268-1.46,0.467c-0.898,0.334-1.685,0.869-2.246,1.402c-0.337,0.268-0.562,0.602-0.786,0.868
	c0,0.065-0.112,0.133-0.112,0.267l-0.113,0.268c0,0.066-0.112,0.135-0.112,0.268l-0.113,0.268c-0.112,0.335-0.225,0.668-0.225,1.002
	c0,0.199,0,0.334,0,0.533c0,0.201,0.113,0.334,0.113,0.535c0.112,0.334,0.336,0.668,0.673,1c0.337,0.334,0.787,0.602,1.348,0.801
	c0.112,0.067,0.225,0.067,0.449,0.135c0.112,0.066,0.337,0.066,0.449,0.134h0.112h0.112l0.225,0.065h0.225H21.1h0.225h0.112v-0.065
	l0.112-0.067l0,0v0.067c0.112,0,0.337,0.065,0.449,0.065c0.112,0,0.337,0,0.449,0h0.225c0.112,0,0.112,0,0.225,0
	c1.123-0.199,1.909-0.533,2.583-0.866c0.674-0.334,1.123-0.734,1.572-1.136c0.225-0.2,0.337-0.334,0.449-0.534
	c0.112-0.066,0.112-0.134,0.225-0.267c0-0.066,0.113-0.135,0.113-0.201C27.723,12.954,27.723,12.821,27.836,12.688z M26.376,11.22
	c0,0.133,0,0.199,0,0.334c0,0.065,0,0.2-0.113,0.267c0,0.067,0,0.135-0.112,0.2c0,0,0,0.066-0.112,0.199c0,0.068,0,0.068,0,0.135
	c0,0.065,0,0.065-0.112,0.135c-0.112,0.064-0.112,0.199-0.225,0.266c-0.112,0.2-0.449,0.469-0.674,0.803
	c-0.336,0.267-0.673,0.601-1.234,0.866c-0.113,0.067-0.225,0.136-0.337,0.2c-0.112,0.066-0.225,0.135-0.449,0.2
	c-0.112,0-0.112,0.067-0.225,0.067l-0.112,0.066h-0.112c-0.113,0-0.113,0.064-0.225,0.064c-0.113,0-0.113,0.068-0.225,0.068h-0.112
	h-0.112c-0.112,0-0.225,0-0.225,0.066c-0.112,0-0.224,0-0.224,0l0,0v0.134c-0.112,0,0.112,0.133,0.112,0.133l0,0l-0.337-0.2
	l-0.225-0.065l-0.224-0.066h-0.113h-0.112l0,0h-0.112c-0.112,0-0.112,0-0.225-0.067c-0.112,0-0.112-0.065-0.225-0.065
	c-0.673-0.2-1.123-0.601-1.459-1.136c-0.112-0.133-0.112-0.268-0.225-0.4c0-0.134-0.112-0.267-0.112-0.4
	c0-0.268,0-0.602,0.112-0.867c0-0.135,0.112-0.334,0.112-0.467l0.112-0.2c0-0.067,0.112-0.134,0.112-0.2
	c0.112-0.268,0.337-0.534,0.674-0.802c0.112-0.134,0.225-0.267,0.449-0.334c0.112-0.066,0.112-0.134,0.224-0.2l0.225-0.134
	c0.112-0.066,0.112-0.132,0.225-0.132c0.112-0.068,0.112-0.135,0.225-0.135c0.225-0.065,0.336-0.201,0.562-0.268
	c0.225-0.066,0.337-0.135,0.562-0.2c0.112,0,0.225-0.067,0.336-0.067l0.112-0.065h0.113c0.112,0,0.225-0.065,0.336-0.065
	c0.112,0,0.225,0,0.337,0c0.112,0,0.224,0,0.337,0l0.112-0.067V8.752l0,0l0.112,0.066c0.112,0,0.225,0.067,0.336,0.067
	c0.112,0,0.112,0.065,0.225,0.065h0.112l0.113,0.065c0.112,0,0.112,0.067,0.225,0.067c0.337,0.065,0.561,0.267,0.786,0.401
	c0.449,0.332,0.562,0.666,0.674,1C26.376,10.685,26.376,10.952,26.376,11.22z"/>
<path d="M20.201,12.22c0,0.555,0.704,1.002,1.572,1.002c0.868,0,1.572-0.447,1.572-1.002c0-0.553-0.703-1-1.572-1
	C20.905,11.22,20.201,11.667,20.201,12.22z"/>
<path d="M43.78,12.22c0,0.555,0.703,1.002,1.572,1.002c0.869,0,1.572-0.447,1.572-1.002l0,0c0-0.553-0.704-1-1.572-1
	C44.484,11.22,43.78,11.667,43.78,12.22z"/>
<path d="M36.482,28.71c-1.685,0-4.379,0-6.176,0c-2.357,0-3.48,1.135-1.909,2.403c1.572,1.2,3.817,1.669,4.828,1.669
	c1.123,0,3.481-0.268,4.828-1.803C39.513,29.444,38.166,28.71,36.482,28.71z"/>
<g>
	<path d="M101.309,31.263c-4.476,2.654-9.631,3.396-11.375,3.396c-8.948,0-14.485-3.669-14.485-7.809
		c0-5.737,9.101-9.291,15.245-9.291c6.521,0,11.223,2.732,11.223,5.506c0,0.779-0.076,0.896-1.289,1.016
		c-1.213,0.115-10.919,0.546-21.385,0.701c-0.076,5.936,6.824,8.042,12.059,8.042c2.575,0,5.308-0.272,9.174-2.146L101.309,31.263z
		 M79.696,23.533c1.743,0,12.437-0.079,15.698-0.119c1.895,0,1.895-0.39,1.895-0.625c0-2.185-3.184-4.138-8.645-4.138
		C84.852,18.651,80.834,20.368,79.696,23.533z"/>
	<path d="M125.439,30.716c-2.256,2.186-5.961,3.942-9.184,3.942c-6.553,0-10.688-3.748-10.688-7.534
		c0-7.263,9.506-9.564,13.319-9.564c1.448,0,5.746,0.664,5.746,1.912c0,0.625-1.074,1.365-1.826,1.365
		c-0.215,0-0.43-0.117-0.752-0.313c-1.879-1.055-3.652-1.405-6.391-1.405c-3.223,0-7.195,1.835-7.195,6.364
		c0.053,5.582,5.531,7.34,9.021,7.34c2.576,0,4.458-0.469,7.303-2.655L125.439,30.716z"/>
	<path d="M127.266,33.683c3.274-0.154,3.865-0.739,3.865-3.162v-18.35c0-2.46-0.322-2.615-4.027-3.124V8.619
		c2.418-0.313,5.154-0.897,6.605-1.329v13.275c2.148-1.641,5.209-3.006,8.376-3.006c4.136,0,7.197,1.951,7.197,6.439v6.521
		c0,2.459,0.591,3.006,3.866,3.162v0.547h-10.527v-0.547c3.6-0.156,4.083-0.742,4.083-3.397v-5.349c0-3.67-1.503-5.623-6.604-5.623
		c-2.523,0.117-4.887,0.898-6.39,2.266v8.706c0,2.655,0.536,3.241,4.242,3.397v0.547h-10.633L127.266,33.683z"/>
	<path d="M180,25.797c0,5.894-6.658,8.861-11.813,8.861c-7.088,0-11.922-3.903-11.922-8.158c0-6.325,7.304-8.94,11.813-8.94
		C174.844,17.56,180,21.267,180,25.797z M159.648,25.21c0,4.998,3.598,8.551,9.289,8.551c4.511,0,7.787-2.107,7.787-7.379
		c0-3.787-3.168-7.886-9.129-7.886C162.655,18.496,159.648,21.308,159.648,25.21z"/>
</g>
</svg>
