<svg height="32" viewBox="0 0 1560 1024" width="48.75" xmlns="http://www.w3.org/2000/svg"><path d="m141.409524 0h1275.123809c80.457143 0 143.847619 63.390476 143.847619 138.971429v746.057142c0 78.019048-63.390476 138.971429-141.409523 138.971429h-1277.561905c-78.019048 0-141.409524-63.390476-141.409524-138.971429v-746.057142c0-75.580953 63.390476-138.971429 141.409524-138.971429z" fill="#de2910"/><path d="m1560.380952 129.219048v755.809523-746.057142z" fill="#57a863"/><path d="m275.504762 126.780952 29.257143 82.895238h87.771428l-73.142857 53.638096 29.257143 82.895238-73.142857-51.2-70.704762 51.2 26.819048-82.895238-70.704762-53.638096h87.771428zm197.485714-80.457142 4.876191 31.695238 31.695238 7.314285-29.257143 12.190477 2.438095 34.133333-21.942857-24.380953-29.257143 14.628572 14.628572-29.257143-21.942858-24.380952 31.695239 7.314285zm70.704762 104.838095 17.066667 26.819047 31.695238-4.87619-21.942857 24.380952 17.066666 26.819048-29.257142-12.190476-21.942858 24.380952 2.438096-34.133333-29.257143-12.190476 31.695238-7.314286zm-9.752381 117.028571 9.752381 31.695238h31.695238l-26.819047 19.504762 9.752381 31.695238-24.380953-19.504762-26.819047 19.504762 9.75238-31.695238-24.380952-21.942857 31.695238 2.438095zm-63.390476 92.647619-4.876191 31.695238 31.695239 12.190477-31.695239 9.75238-2.438095 34.133334-17.066666-29.257143-31.695239 9.752381 21.942858-26.819048-17.066667-26.819047 29.257143 9.752381z" fill="#ffde00"/></svg>